<svg xmlns="http://www.w3.org/2000/svg" xmlns:xlink="http://www.w3.org/1999/xlink" width="123.689" height="48.619" viewBox="0 0 123.689 48.619"><defs><clipPath id="a"><rect width="123.689" height="48.619" fill="none"/></clipPath><linearGradient id="b" x1="1.395" y1="0.5" x2="0" y2="0.5" gradientUnits="objectBoundingBox"><stop offset="0" stop-color="#1acfab"/><stop offset="1" stop-color="#fff"/></linearGradient></defs><g clip-path="url(#a)"><path d="M416.467,31.324a2.769,2.769,0,0,0-2.23-1.124h-5.155a2.347,2.347,0,0,0-2.126,1.377c-2.252,4.933-7.674,7.717-11.619,7.549-8.841-.366-11.394-9.3-11.591-12.4a1.464,1.464,0,0,0-1.09-1.341c-.474-.121-.583.2-.6.264a13.22,13.22,0,0,0,2.443,11.3,13.909,13.909,0,0,0,10.74,5.732c5.935.152,11.179-3.033,14.374-8.746a.21.21,0,0,1,.181-.11h2.355a.206.206,0,0,1,.179.1.2.2,0,0,1,.007.2c-2.912,5.535-8.908,11.272-17.01,10.765C380.275,43.953,379.406,30.962,379.5,27c.17-7.3,4.98-16.522,15.931-16.53,4.208,0,7.57,2.157,10.135,5.18a2.88,2.88,0,0,0,2.2,1.021h5.243a2.92,2.92,0,0,0,2.564-1.486,2.987,2.987,0,0,0,.285-2.945C413.673,8.422,406.561,0,395.146,0,375,0,370.677,16.718,370.022,20.245a1.8,1.8,0,0,0,.138,1.093l1.572,5.287a.205.205,0,0,0,.395-.006,25.543,25.543,0,0,1,3.606-12.469c3.58-6.28,9.848-11.018,19.787-10.781,7.86.187,13.382,4.624,17.217,9.731.005.007-4.393.1-4.491,0-3.244-3.308-7.3-5.989-12.5-6.121a18.792,18.792,0,0,0-13.184,4.587,20.423,20.423,0,0,0-6.836,14.3c-.3,6.812,1.8,13.095,5.76,17.238,3.5,3.657,8.188,5.51,13.942,5.51a21.561,21.561,0,0,0,13.415-4.692,25.035,25.035,0,0,0,7.868-10.79,1.923,1.923,0,0,0-.239-1.815" transform="translate(-293.143 -0.001)" fill="url(#b)"/><path d="M117.171,77.069c-1.58,1.123-3.061,2.421-3.514,2.7a.308.308,0,0,0-.148.252c-.025.671-.109,3.646-.066,9.33a10.18,10.18,0,0,1-.576,3.538c-1.148,3.176-3.177,5.485-6.963,5.48-3.36,0-4.926-1.426-4.922-5.108L101,77.851a.643.643,0,0,0-1.046-.5l-2.868,2.315a1.818,1.818,0,0,0-.676,1.412l-.017,12.809c-.006,5.314,3.014,8.263,8.221,8.268,3.975,0,7.281-1.781,8.8-5.146l-.005,4.942a.154.154,0,0,0,.154.154l4.283,0a.154.154,0,0,0,.154-.153l.047-24.438a.551.551,0,0,0-.87-.449" transform="translate(-76.37 -60.979)" fill="#fff"/><path d="M234.319,32.574c-.9-2.7-3.143-10.1-4-12.673-.19-.568-.721-1.416-1.32-1.417l-3.353,0a1.394,1.394,0,0,0-1.3.886L216.9,35.383s-.707,1.644-1.274,2.645c-1.186,2.1-2.3,2.333-3.5,2.332-1.736,0-3.477-1.49-3.475-4.067l.027-20.905,3.651.006a.423.423,0,0,0,.325-.152l1.993-3.781a.423.423,0,0,0-.324-.695l-5.64-.007.007-6.841a.319.319,0,0,0-.314-.319l-2.92-.044a.588.588,0,0,0-.6.587l0,1.457c0,3.42-.814,5.786-4.79,5.782a.5.5,0,0,0-.5.5l0,2.99a.5.5,0,0,0,.5.5l2.666,0a1.253,1.253,0,0,1,1.252,1.255l-.025,18.757c-.006,5.629,2.284,9.4,7.934,9.63,5.829.233,8.011-5.382,8.011-5.382.5-1.125,6.7-14.514,6.7-14.514a.659.659,0,0,1,1.117,0s1.814,5.472,2.52,8h-1.091l-1.632,4.2h3.935a52.2,52.2,0,0,0,2.515,6.639.445.445,0,0,0,.426.255l3.879-.2a.442.442,0,0,0,.366-.651,70.706,70.706,0,0,1-4.317-10.8" transform="translate(-158.113 -2.816)" fill="#fff"/><path d="M11.6,75.3c-3.212,0-5.879,1.742-7.131,5.5V75.987A.31.31,0,0,0,4.03,75.7c-1.017.444-3.2,1.418-3.847,1.706A.309.309,0,0,0,0,77.691V99.826H4.464V87.2c0-4.845,2.45-8.088,5.716-8.088,1.7,0,2.372,1.021,3.254,2.6a.649.649,0,0,0,.927.221l3.123-1.986a.655.655,0,0,0,.236-.8A6.26,6.26,0,0,0,11.6,75.3" transform="translate(0 -59.658)" fill="#fff"/></g></svg>